<mxfile host="65bd71144e">
    <diagram name="Schema" id="C3RkXjvTenhWRW_zUnYT">
        <mxGraphModel dx="691" dy="709" grid="1" gridSize="10" guides="1" tooltips="1" connect="1" arrows="1" fold="1" page="1" pageScale="1" pageWidth="850" pageHeight="1100" math="0" shadow="0">
            <root>
                <mxCell id="0"/>
                <mxCell id="1" parent="0"/>
                <mxCell id="wnaFUYEEYBbfcS-OowJY-1" value="Gym" style="swimlane;fontStyle=0;childLayout=stackLayout;horizontal=1;startSize=30;horizontalStack=0;resizeParent=1;resizeParentMax=0;resizeLast=0;collapsible=1;marginBottom=0;whiteSpace=wrap;html=1;" parent="1" vertex="1">
                    <mxGeometry x="180" y="960" width="145" height="210" as="geometry"/>
                </mxCell>
                <mxCell id="wnaFUYEEYBbfcS-OowJY-2" value="&lt;u&gt;GymID&lt;/u&gt;: int" style="text;strokeColor=none;fillColor=none;align=left;verticalAlign=middle;spacingLeft=4;spacingRight=4;overflow=hidden;points=[[0,0.5],[1,0.5]];portConstraint=eastwest;rotatable=0;whiteSpace=wrap;html=1;" parent="wnaFUYEEYBbfcS-OowJY-1" vertex="1">
                    <mxGeometry y="30" width="145" height="30" as="geometry"/>
                </mxCell>
                <mxCell id="wnaFUYEEYBbfcS-OowJY-3" value="&lt;div&gt;country: string&lt;/div&gt;" style="text;strokeColor=none;fillColor=none;align=left;verticalAlign=middle;spacingLeft=4;spacingRight=4;overflow=hidden;points=[[0,0.5],[1,0.5]];portConstraint=eastwest;rotatable=0;whiteSpace=wrap;html=1;" parent="wnaFUYEEYBbfcS-OowJY-1" vertex="1">
                    <mxGeometry y="60" width="145" height="30" as="geometry"/>
                </mxCell>
                <mxCell id="27" value="&lt;div&gt;state: string&lt;/div&gt;" style="text;strokeColor=none;fillColor=none;align=left;verticalAlign=middle;spacingLeft=4;spacingRight=4;overflow=hidden;points=[[0,0.5],[1,0.5]];portConstraint=eastwest;rotatable=0;whiteSpace=wrap;html=1;" vertex="1" parent="wnaFUYEEYBbfcS-OowJY-1">
                    <mxGeometry y="90" width="145" height="30" as="geometry"/>
                </mxCell>
                <mxCell id="38" value="&lt;div&gt;city: string&lt;/div&gt;" style="text;strokeColor=none;fillColor=none;align=left;verticalAlign=middle;spacingLeft=4;spacingRight=4;overflow=hidden;points=[[0,0.5],[1,0.5]];portConstraint=eastwest;rotatable=0;whiteSpace=wrap;html=1;" vertex="1" parent="wnaFUYEEYBbfcS-OowJY-1">
                    <mxGeometry y="120" width="145" height="30" as="geometry"/>
                </mxCell>
                <mxCell id="28" value="&lt;div&gt;streetAddress: string&lt;/div&gt;" style="text;strokeColor=none;fillColor=none;align=left;verticalAlign=middle;spacingLeft=4;spacingRight=4;overflow=hidden;points=[[0,0.5],[1,0.5]];portConstraint=eastwest;rotatable=0;whiteSpace=wrap;html=1;" vertex="1" parent="wnaFUYEEYBbfcS-OowJY-1">
                    <mxGeometry y="150" width="145" height="30" as="geometry"/>
                </mxCell>
                <mxCell id="29" value="&lt;div&gt;UNQUE(country, state, streetAddress)&lt;/div&gt;" style="text;strokeColor=none;fillColor=none;align=left;verticalAlign=middle;spacingLeft=4;spacingRight=4;overflow=hidden;points=[[0,0.5],[1,0.5]];portConstraint=eastwest;rotatable=0;whiteSpace=wrap;html=1;" vertex="1" parent="wnaFUYEEYBbfcS-OowJY-1">
                    <mxGeometry y="180" width="145" height="30" as="geometry"/>
                </mxCell>
                <mxCell id="wnaFUYEEYBbfcS-OowJY-7" value="&lt;p&gt;A gym manager has approached you to help uplift their brand. They own many gyms across different geographical locations and each has a large whiteboard.&lt;/p&gt;&lt;br/&gt;&lt;p&gt;The whiteboard traditionally displays daily, weekly, and monthly fitness challenges (e.g., &quot;Max push-ups in 1 minute,&quot; &quot;Run 5K this week&quot;) for members to compete in. Your task is to design and implement a web-based product that replaces the whiteboard, engages users, and tracks participation.&lt;/p&gt;&lt;div&gt;&lt;br/&gt;&lt;/div&gt;" style="text;html=1;align=center;verticalAlign=middle;whiteSpace=wrap;rounded=0;" parent="1" vertex="1">
                    <mxGeometry x="220" y="580" width="520" height="30" as="geometry"/>
                </mxCell>
                <mxCell id="wnaFUYEEYBbfcS-OowJY-8" value="&lt;div&gt;Gym&lt;/div&gt;" style="rounded=0;whiteSpace=wrap;html=1;" parent="1" vertex="1">
                    <mxGeometry x="200" y="680" width="80" height="40" as="geometry"/>
                </mxCell>
                <mxCell id="wnaFUYEEYBbfcS-OowJY-10" value="&lt;div&gt;&lt;u&gt;GymID&lt;/u&gt;&lt;/div&gt;" style="ellipse;whiteSpace=wrap;html=1;" parent="1" vertex="1">
                    <mxGeometry x="120" y="660" width="60" height="30" as="geometry"/>
                </mxCell>
                <mxCell id="wnaFUYEEYBbfcS-OowJY-11" value="&lt;div&gt;Type&lt;/div&gt;" style="ellipse;whiteSpace=wrap;html=1;" parent="1" vertex="1">
                    <mxGeometry x="450" y="780" width="60" height="30" as="geometry"/>
                </mxCell>
                <mxCell id="wnaFUYEEYBbfcS-OowJY-12" value="GymChallenges" style="rhombus;whiteSpace=wrap;html=1;" parent="1" vertex="1">
                    <mxGeometry x="310" y="670" width="110" height="60" as="geometry"/>
                </mxCell>
                <mxCell id="wnaFUYEEYBbfcS-OowJY-15" value="&lt;div&gt;Challenges&lt;/div&gt;" style="rounded=0;whiteSpace=wrap;html=1;" parent="1" vertex="1">
                    <mxGeometry x="440" y="680" width="80" height="40" as="geometry"/>
                </mxCell>
                <mxCell id="wnaFUYEEYBbfcS-OowJY-16" value="Location: unique" style="ellipse;whiteSpace=wrap;html=1;" parent="1" vertex="1">
                    <mxGeometry x="70" y="710" width="110" height="30" as="geometry"/>
                </mxCell>
                <mxCell id="wnaFUYEEYBbfcS-OowJY-17" value="&lt;u&gt;ChallengeID&lt;/u&gt;" style="ellipse;whiteSpace=wrap;html=1;" parent="1" vertex="1">
                    <mxGeometry x="335" y="780" width="90" height="30" as="geometry"/>
                </mxCell>
                <mxCell id="wnaFUYEEYBbfcS-OowJY-18" value="Entries" style="rounded=0;whiteSpace=wrap;html=1;" parent="1" vertex="1">
                    <mxGeometry x="680" y="680" width="80" height="40" as="geometry"/>
                </mxCell>
                <mxCell id="wnaFUYEEYBbfcS-OowJY-19" value="User" style="rounded=0;whiteSpace=wrap;html=1;" parent="1" vertex="1">
                    <mxGeometry x="680" y="830" width="80" height="40" as="geometry"/>
                </mxCell>
                <mxCell id="wnaFUYEEYBbfcS-OowJY-20" value="" style="endArrow=none;html=1;rounded=0;exitX=0;exitY=0.5;exitDx=0;exitDy=0;entryX=1;entryY=0.5;entryDx=0;entryDy=0;" parent="1" source="wnaFUYEEYBbfcS-OowJY-8" target="wnaFUYEEYBbfcS-OowJY-10" edge="1">
                    <mxGeometry width="50" height="50" relative="1" as="geometry">
                        <mxPoint x="380" y="660" as="sourcePoint"/>
                        <mxPoint x="430" y="610" as="targetPoint"/>
                    </mxGeometry>
                </mxCell>
                <mxCell id="wnaFUYEEYBbfcS-OowJY-21" value="" style="endArrow=none;html=1;rounded=0;entryX=0;entryY=0.5;entryDx=0;entryDy=0;exitX=1;exitY=0.5;exitDx=0;exitDy=0;" parent="1" source="wnaFUYEEYBbfcS-OowJY-16" target="wnaFUYEEYBbfcS-OowJY-8" edge="1">
                    <mxGeometry width="50" height="50" relative="1" as="geometry">
                        <mxPoint x="190" y="860" as="sourcePoint"/>
                        <mxPoint x="240" y="810" as="targetPoint"/>
                    </mxGeometry>
                </mxCell>
                <mxCell id="wnaFUYEEYBbfcS-OowJY-22" value="" style="endArrow=none;html=1;rounded=0;entryX=0.5;entryY=1;entryDx=0;entryDy=0;exitX=0.5;exitY=0;exitDx=0;exitDy=0;" parent="1" source="wnaFUYEEYBbfcS-OowJY-17" target="wnaFUYEEYBbfcS-OowJY-15" edge="1">
                    <mxGeometry width="50" height="50" relative="1" as="geometry">
                        <mxPoint x="240" y="840" as="sourcePoint"/>
                        <mxPoint x="290" y="790" as="targetPoint"/>
                    </mxGeometry>
                </mxCell>
                <mxCell id="wnaFUYEEYBbfcS-OowJY-23" value="" style="endArrow=none;html=1;rounded=0;entryX=0.5;entryY=1;entryDx=0;entryDy=0;exitX=0.5;exitY=0;exitDx=0;exitDy=0;" parent="1" source="wnaFUYEEYBbfcS-OowJY-11" target="wnaFUYEEYBbfcS-OowJY-15" edge="1">
                    <mxGeometry width="50" height="50" relative="1" as="geometry">
                        <mxPoint x="240" y="850" as="sourcePoint"/>
                        <mxPoint x="290" y="800" as="targetPoint"/>
                    </mxGeometry>
                </mxCell>
                <mxCell id="wnaFUYEEYBbfcS-OowJY-24" value="ChallengeEntries" style="rhombus;whiteSpace=wrap;html=1;" parent="1" vertex="1">
                    <mxGeometry x="540" y="670" width="120" height="60" as="geometry"/>
                </mxCell>
                <mxCell id="wnaFUYEEYBbfcS-OowJY-25" value="&lt;div&gt;UserEntries&lt;/div&gt;" style="rhombus;whiteSpace=wrap;html=1;" parent="1" vertex="1">
                    <mxGeometry x="680" y="750" width="80" height="60" as="geometry"/>
                </mxCell>
                <mxCell id="wnaFUYEEYBbfcS-OowJY-27" value="&lt;div&gt;Description&lt;/div&gt;" style="ellipse;whiteSpace=wrap;html=1;" parent="1" vertex="1">
                    <mxGeometry x="530" y="780" width="70" height="30" as="geometry"/>
                </mxCell>
                <mxCell id="wnaFUYEEYBbfcS-OowJY-28" value="" style="endArrow=none;html=1;rounded=0;entryX=0.5;entryY=1;entryDx=0;entryDy=0;exitX=0.5;exitY=0;exitDx=0;exitDy=0;" parent="1" source="wnaFUYEEYBbfcS-OowJY-27" target="wnaFUYEEYBbfcS-OowJY-15" edge="1">
                    <mxGeometry width="50" height="50" relative="1" as="geometry">
                        <mxPoint x="490" y="790" as="sourcePoint"/>
                        <mxPoint x="490" y="730" as="targetPoint"/>
                    </mxGeometry>
                </mxCell>
                <mxCell id="wnaFUYEEYBbfcS-OowJY-30" value="" style="endArrow=none;html=1;rounded=0;exitX=1;exitY=0.5;exitDx=0;exitDy=0;entryX=0;entryY=0.5;entryDx=0;entryDy=0;" parent="1" source="wnaFUYEEYBbfcS-OowJY-8" target="wnaFUYEEYBbfcS-OowJY-12" edge="1">
                    <mxGeometry width="50" height="50" relative="1" as="geometry">
                        <mxPoint x="280" y="820" as="sourcePoint"/>
                        <mxPoint x="330" y="770" as="targetPoint"/>
                    </mxGeometry>
                </mxCell>
                <mxCell id="wnaFUYEEYBbfcS-OowJY-31" value="" style="endArrow=none;html=1;rounded=0;entryX=0;entryY=0.5;entryDx=0;entryDy=0;exitX=1;exitY=0.5;exitDx=0;exitDy=0;" parent="1" source="wnaFUYEEYBbfcS-OowJY-12" target="wnaFUYEEYBbfcS-OowJY-15" edge="1">
                    <mxGeometry width="50" height="50" relative="1" as="geometry">
                        <mxPoint x="290" y="790" as="sourcePoint"/>
                        <mxPoint x="340" y="740" as="targetPoint"/>
                    </mxGeometry>
                </mxCell>
                <mxCell id="wnaFUYEEYBbfcS-OowJY-32" value="" style="endArrow=none;html=1;rounded=0;exitX=1;exitY=0.5;exitDx=0;exitDy=0;entryX=0;entryY=0.5;entryDx=0;entryDy=0;" parent="1" source="wnaFUYEEYBbfcS-OowJY-15" target="wnaFUYEEYBbfcS-OowJY-24" edge="1">
                    <mxGeometry width="50" height="50" relative="1" as="geometry">
                        <mxPoint x="410" y="890" as="sourcePoint"/>
                        <mxPoint x="460" y="840" as="targetPoint"/>
                    </mxGeometry>
                </mxCell>
                <mxCell id="wnaFUYEEYBbfcS-OowJY-33" value="" style="endArrow=none;html=1;rounded=0;exitX=0;exitY=0.5;exitDx=0;exitDy=0;entryX=1;entryY=0.5;entryDx=0;entryDy=0;" parent="1" source="wnaFUYEEYBbfcS-OowJY-18" target="wnaFUYEEYBbfcS-OowJY-24" edge="1">
                    <mxGeometry width="50" height="50" relative="1" as="geometry">
                        <mxPoint x="490" y="950" as="sourcePoint"/>
                        <mxPoint x="540" y="900" as="targetPoint"/>
                    </mxGeometry>
                </mxCell>
                <mxCell id="wnaFUYEEYBbfcS-OowJY-37" value="Name" style="ellipse;whiteSpace=wrap;html=1;" parent="1" vertex="1">
                    <mxGeometry x="640" y="900" width="60" height="30" as="geometry"/>
                </mxCell>
                <mxCell id="wnaFUYEEYBbfcS-OowJY-38" value="&lt;div&gt;Email&lt;/div&gt;" style="ellipse;whiteSpace=wrap;html=1;" parent="1" vertex="1">
                    <mxGeometry x="730" y="900" width="60" height="30" as="geometry"/>
                </mxCell>
                <mxCell id="wnaFUYEEYBbfcS-OowJY-41" value="" style="endArrow=none;html=1;rounded=0;entryX=0.5;entryY=1;entryDx=0;entryDy=0;exitX=0.5;exitY=0;exitDx=0;exitDy=0;" parent="1" source="wnaFUYEEYBbfcS-OowJY-37" target="wnaFUYEEYBbfcS-OowJY-19" edge="1">
                    <mxGeometry width="50" height="50" relative="1" as="geometry">
                        <mxPoint x="603" y="910" as="sourcePoint"/>
                        <mxPoint x="690" y="880" as="targetPoint"/>
                    </mxGeometry>
                </mxCell>
                <mxCell id="wnaFUYEEYBbfcS-OowJY-42" value="" style="endArrow=none;html=1;rounded=0;entryX=0.5;entryY=1;entryDx=0;entryDy=0;exitX=0.5;exitY=0;exitDx=0;exitDy=0;" parent="1" source="wnaFUYEEYBbfcS-OowJY-38" target="wnaFUYEEYBbfcS-OowJY-19" edge="1">
                    <mxGeometry width="50" height="50" relative="1" as="geometry">
                        <mxPoint x="570" y="960" as="sourcePoint"/>
                        <mxPoint x="620" y="910" as="targetPoint"/>
                    </mxGeometry>
                </mxCell>
                <mxCell id="wnaFUYEEYBbfcS-OowJY-43" value="Password" style="ellipse;whiteSpace=wrap;html=1;" parent="1" vertex="1">
                    <mxGeometry x="810" y="900" width="60" height="30" as="geometry"/>
                </mxCell>
                <mxCell id="wnaFUYEEYBbfcS-OowJY-45" value="" style="endArrow=none;html=1;rounded=0;entryX=0.5;entryY=1;entryDx=0;entryDy=0;exitX=0.5;exitY=0;exitDx=0;exitDy=0;" parent="1" source="wnaFUYEEYBbfcS-OowJY-43" target="wnaFUYEEYBbfcS-OowJY-19" edge="1">
                    <mxGeometry width="50" height="50" relative="1" as="geometry">
                        <mxPoint x="550" y="1010" as="sourcePoint"/>
                        <mxPoint x="600" y="960" as="targetPoint"/>
                    </mxGeometry>
                </mxCell>
                <mxCell id="wnaFUYEEYBbfcS-OowJY-47" value="" style="endArrow=classic;html=1;rounded=0;exitX=0.5;exitY=1;exitDx=0;exitDy=0;entryX=0.5;entryY=0;entryDx=0;entryDy=0;strokeWidth=2;" parent="1" source="wnaFUYEEYBbfcS-OowJY-18" target="wnaFUYEEYBbfcS-OowJY-25" edge="1">
                    <mxGeometry width="50" height="50" relative="1" as="geometry">
                        <mxPoint x="400" y="940" as="sourcePoint"/>
                        <mxPoint x="450" y="890" as="targetPoint"/>
                    </mxGeometry>
                </mxCell>
                <mxCell id="wnaFUYEEYBbfcS-OowJY-48" value="" style="endArrow=none;html=1;rounded=0;entryX=0.5;entryY=1;entryDx=0;entryDy=0;exitX=0.5;exitY=0;exitDx=0;exitDy=0;" parent="1" source="wnaFUYEEYBbfcS-OowJY-19" target="wnaFUYEEYBbfcS-OowJY-25" edge="1">
                    <mxGeometry width="50" height="50" relative="1" as="geometry">
                        <mxPoint x="430" y="930" as="sourcePoint"/>
                        <mxPoint x="480" y="880" as="targetPoint"/>
                    </mxGeometry>
                </mxCell>
                <mxCell id="wnaFUYEEYBbfcS-OowJY-49" value="Data" style="ellipse;whiteSpace=wrap;html=1;" parent="1" vertex="1">
                    <mxGeometry x="800" y="640" width="60" height="30" as="geometry"/>
                </mxCell>
                <mxCell id="wnaFUYEEYBbfcS-OowJY-50" value="" style="endArrow=none;html=1;rounded=0;entryX=1;entryY=0.5;entryDx=0;entryDy=0;exitX=0;exitY=0.5;exitDx=0;exitDy=0;" parent="1" source="wnaFUYEEYBbfcS-OowJY-49" target="wnaFUYEEYBbfcS-OowJY-18" edge="1">
                    <mxGeometry width="50" height="50" relative="1" as="geometry">
                        <mxPoint x="470" y="900" as="sourcePoint"/>
                        <mxPoint x="520" y="850" as="targetPoint"/>
                    </mxGeometry>
                </mxCell>
                <mxCell id="wnaFUYEEYBbfcS-OowJY-51" value="Challenges" style="swimlane;fontStyle=0;childLayout=stackLayout;horizontal=1;startSize=30;horizontalStack=0;resizeParent=1;resizeParentMax=0;resizeLast=0;collapsible=1;marginBottom=0;whiteSpace=wrap;html=1;" parent="1" vertex="1">
                    <mxGeometry x="370" y="960" width="125" height="180" as="geometry"/>
                </mxCell>
                <mxCell id="16" value="GymID: int" style="text;strokeColor=none;fillColor=none;align=left;verticalAlign=middle;spacingLeft=4;spacingRight=4;overflow=hidden;points=[[0,0.5],[1,0.5]];portConstraint=eastwest;rotatable=0;whiteSpace=wrap;html=1;" vertex="1" parent="wnaFUYEEYBbfcS-OowJY-51">
                    <mxGeometry y="30" width="125" height="30" as="geometry"/>
                </mxCell>
                <mxCell id="wnaFUYEEYBbfcS-OowJY-52" value="&lt;u&gt;ChallengeID&lt;/u&gt;: int" style="text;strokeColor=none;fillColor=none;align=left;verticalAlign=middle;spacingLeft=4;spacingRight=4;overflow=hidden;points=[[0,0.5],[1,0.5]];portConstraint=eastwest;rotatable=0;whiteSpace=wrap;html=1;" parent="wnaFUYEEYBbfcS-OowJY-51" vertex="1">
                    <mxGeometry y="60" width="125" height="30" as="geometry"/>
                </mxCell>
                <mxCell id="wnaFUYEEYBbfcS-OowJY-54" value="&lt;div&gt;Title: string (unique)&lt;/div&gt;" style="text;strokeColor=none;fillColor=none;align=left;verticalAlign=middle;spacingLeft=4;spacingRight=4;overflow=hidden;points=[[0,0.5],[1,0.5]];portConstraint=eastwest;rotatable=0;whiteSpace=wrap;html=1;" parent="wnaFUYEEYBbfcS-OowJY-51" vertex="1">
                    <mxGeometry y="90" width="125" height="30" as="geometry"/>
                </mxCell>
                <mxCell id="wnaFUYEEYBbfcS-OowJY-53" value="&lt;div&gt;Type: string&lt;/div&gt;" style="text;strokeColor=none;fillColor=none;align=left;verticalAlign=middle;spacingLeft=4;spacingRight=4;overflow=hidden;points=[[0,0.5],[1,0.5]];portConstraint=eastwest;rotatable=0;whiteSpace=wrap;html=1;" parent="wnaFUYEEYBbfcS-OowJY-51" vertex="1">
                    <mxGeometry y="120" width="125" height="30" as="geometry"/>
                </mxCell>
                <mxCell id="25" value="UNIQUE(gymId, title)" style="text;whiteSpace=wrap;" vertex="1" parent="wnaFUYEEYBbfcS-OowJY-51">
                    <mxGeometry y="150" width="125" height="30" as="geometry"/>
                </mxCell>
                <mxCell id="wnaFUYEEYBbfcS-OowJY-55" value="User" style="swimlane;fontStyle=0;childLayout=stackLayout;horizontal=1;startSize=30;horizontalStack=0;resizeParent=1;resizeParentMax=0;resizeLast=0;collapsible=1;marginBottom=0;whiteSpace=wrap;html=1;" parent="1" vertex="1">
                    <mxGeometry x="535" y="960" width="130" height="180" as="geometry"/>
                </mxCell>
                <mxCell id="4" value="&lt;u&gt;UserID&lt;/u&gt;: int" style="text;strokeColor=none;fillColor=none;align=left;verticalAlign=middle;spacingLeft=4;spacingRight=4;overflow=hidden;points=[[0,0.5],[1,0.5]];portConstraint=eastwest;rotatable=0;whiteSpace=wrap;html=1;" parent="wnaFUYEEYBbfcS-OowJY-55" vertex="1">
                    <mxGeometry y="30" width="130" height="30" as="geometry"/>
                </mxCell>
                <mxCell id="34" value="HomeGymID: int" style="text;strokeColor=none;fillColor=none;align=left;verticalAlign=middle;spacingLeft=4;spacingRight=4;overflow=hidden;points=[[0,0.5],[1,0.5]];portConstraint=eastwest;rotatable=0;whiteSpace=wrap;html=1;" vertex="1" parent="wnaFUYEEYBbfcS-OowJY-55">
                    <mxGeometry y="60" width="130" height="30" as="geometry"/>
                </mxCell>
                <mxCell id="wnaFUYEEYBbfcS-OowJY-56" value="Email: string (unique)" style="text;strokeColor=none;fillColor=none;align=left;verticalAlign=middle;spacingLeft=4;spacingRight=4;overflow=hidden;points=[[0,0.5],[1,0.5]];portConstraint=eastwest;rotatable=0;whiteSpace=wrap;html=1;" parent="wnaFUYEEYBbfcS-OowJY-55" vertex="1">
                    <mxGeometry y="90" width="130" height="30" as="geometry"/>
                </mxCell>
                <mxCell id="wnaFUYEEYBbfcS-OowJY-57" value="Password: string" style="text;strokeColor=none;fillColor=none;align=left;verticalAlign=middle;spacingLeft=4;spacingRight=4;overflow=hidden;points=[[0,0.5],[1,0.5]];portConstraint=eastwest;rotatable=0;whiteSpace=wrap;html=1;" parent="wnaFUYEEYBbfcS-OowJY-55" vertex="1">
                    <mxGeometry y="120" width="130" height="30" as="geometry"/>
                </mxCell>
                <mxCell id="wnaFUYEEYBbfcS-OowJY-58" value="Name: string" style="text;strokeColor=none;fillColor=none;align=left;verticalAlign=middle;spacingLeft=4;spacingRight=4;overflow=hidden;points=[[0,0.5],[1,0.5]];portConstraint=eastwest;rotatable=0;whiteSpace=wrap;html=1;" parent="wnaFUYEEYBbfcS-OowJY-55" vertex="1">
                    <mxGeometry y="150" width="130" height="30" as="geometry"/>
                </mxCell>
                <mxCell id="wnaFUYEEYBbfcS-OowJY-66" value="Entries" style="swimlane;fontStyle=0;childLayout=stackLayout;horizontal=1;startSize=30;horizontalStack=0;resizeParent=1;resizeParentMax=0;resizeLast=0;collapsible=1;marginBottom=0;whiteSpace=wrap;html=1;" parent="1" vertex="1">
                    <mxGeometry x="720" y="960" width="160" height="180" as="geometry"/>
                </mxCell>
                <mxCell id="wnaFUYEEYBbfcS-OowJY-78" value="&lt;u&gt;EntryID: &lt;/u&gt;int" style="text;strokeColor=none;fillColor=none;align=left;verticalAlign=middle;spacingLeft=4;spacingRight=4;overflow=hidden;points=[[0,0.5],[1,0.5]];portConstraint=eastwest;rotatable=0;whiteSpace=wrap;html=1;" parent="wnaFUYEEYBbfcS-OowJY-66" vertex="1">
                    <mxGeometry y="30" width="160" height="30" as="geometry"/>
                </mxCell>
                <mxCell id="18" value="UserID: int" style="text;strokeColor=none;fillColor=none;align=left;verticalAlign=middle;spacingLeft=4;spacingRight=4;overflow=hidden;points=[[0,0.5],[1,0.5]];portConstraint=eastwest;rotatable=0;whiteSpace=wrap;html=1;" vertex="1" parent="wnaFUYEEYBbfcS-OowJY-66">
                    <mxGeometry y="60" width="160" height="30" as="geometry"/>
                </mxCell>
                <mxCell id="17" value="ChallengeID: int" style="text;strokeColor=none;fillColor=none;align=left;verticalAlign=middle;spacingLeft=4;spacingRight=4;overflow=hidden;points=[[0,0.5],[1,0.5]];portConstraint=eastwest;rotatable=0;whiteSpace=wrap;html=1;" vertex="1" parent="wnaFUYEEYBbfcS-OowJY-66">
                    <mxGeometry y="90" width="160" height="30" as="geometry"/>
                </mxCell>
                <mxCell id="wnaFUYEEYBbfcS-OowJY-86" value="submissionTime: timestamp" style="text;strokeColor=none;fillColor=none;align=left;verticalAlign=middle;spacingLeft=4;spacingRight=4;overflow=hidden;points=[[0,0.5],[1,0.5]];portConstraint=eastwest;rotatable=0;whiteSpace=wrap;html=1;" parent="wnaFUYEEYBbfcS-OowJY-66" vertex="1">
                    <mxGeometry y="120" width="160" height="30" as="geometry"/>
                </mxCell>
                <mxCell id="wnaFUYEEYBbfcS-OowJY-69" value="Data: JSONB" style="text;strokeColor=none;fillColor=none;align=left;verticalAlign=middle;spacingLeft=4;spacingRight=4;overflow=hidden;points=[[0,0.5],[1,0.5]];portConstraint=eastwest;rotatable=0;whiteSpace=wrap;html=1;" parent="wnaFUYEEYBbfcS-OowJY-66" vertex="1">
                    <mxGeometry y="150" width="160" height="30" as="geometry"/>
                </mxCell>
                <mxCell id="wnaFUYEEYBbfcS-OowJY-76" value="&lt;u&gt;EntryID&lt;/u&gt;" style="ellipse;whiteSpace=wrap;html=1;" parent="1" vertex="1">
                    <mxGeometry x="800" y="730" width="60" height="30" as="geometry"/>
                </mxCell>
                <mxCell id="wnaFUYEEYBbfcS-OowJY-77" value="" style="endArrow=none;html=1;rounded=0;entryX=1;entryY=0.5;entryDx=0;entryDy=0;exitX=0;exitY=0.5;exitDx=0;exitDy=0;" parent="1" source="wnaFUYEEYBbfcS-OowJY-76" target="wnaFUYEEYBbfcS-OowJY-18" edge="1">
                    <mxGeometry width="50" height="50" relative="1" as="geometry">
                        <mxPoint x="810" y="685" as="sourcePoint"/>
                        <mxPoint x="770" y="710" as="targetPoint"/>
                    </mxGeometry>
                </mxCell>
                <mxCell id="wnaFUYEEYBbfcS-OowJY-79" style="edgeStyle=orthogonalEdgeStyle;rounded=0;orthogonalLoop=1;jettySize=auto;html=1;exitX=0;exitY=0.5;exitDx=0;exitDy=0;entryX=0;entryY=0.5;entryDx=0;entryDy=0;" parent="1" source="16" target="wnaFUYEEYBbfcS-OowJY-2" edge="1">
                    <mxGeometry relative="1" as="geometry">
                        <Array as="points">
                            <mxPoint x="340" y="1005"/>
                            <mxPoint x="340" y="1220"/>
                            <mxPoint x="160" y="1220"/>
                            <mxPoint x="160" y="1005"/>
                        </Array>
                        <mxPoint x="179.99999999999977" y="1130" as="sourcePoint"/>
                        <mxPoint x="190" y="1000" as="targetPoint"/>
                    </mxGeometry>
                </mxCell>
                <mxCell id="wnaFUYEEYBbfcS-OowJY-84" value="submissionTime" style="ellipse;whiteSpace=wrap;html=1;" parent="1" vertex="1">
                    <mxGeometry x="800" y="685" width="125" height="30" as="geometry"/>
                </mxCell>
                <mxCell id="wnaFUYEEYBbfcS-OowJY-85" value="" style="endArrow=none;html=1;rounded=0;entryX=1;entryY=0.5;entryDx=0;entryDy=0;exitX=0;exitY=0.5;exitDx=0;exitDy=0;" parent="1" source="wnaFUYEEYBbfcS-OowJY-84" target="wnaFUYEEYBbfcS-OowJY-18" edge="1">
                    <mxGeometry width="50" height="50" relative="1" as="geometry">
                        <mxPoint x="810" y="685" as="sourcePoint"/>
                        <mxPoint x="770" y="710" as="targetPoint"/>
                    </mxGeometry>
                </mxCell>
                <mxCell id="2" value="&lt;div&gt;&lt;u&gt;UserID&lt;/u&gt;&lt;/div&gt;" style="ellipse;whiteSpace=wrap;html=1;" parent="1" vertex="1">
                    <mxGeometry x="560" y="900" width="60" height="30" as="geometry"/>
                </mxCell>
                <mxCell id="3" value="" style="endArrow=none;html=1;rounded=0;entryX=0.5;entryY=1;entryDx=0;entryDy=0;exitX=0.5;exitY=0;exitDx=0;exitDy=0;" parent="1" source="2" target="wnaFUYEEYBbfcS-OowJY-19" edge="1">
                    <mxGeometry width="50" height="50" relative="1" as="geometry">
                        <mxPoint x="640" y="910" as="sourcePoint"/>
                        <mxPoint x="730" y="880" as="targetPoint"/>
                    </mxGeometry>
                </mxCell>
                <mxCell id="14" value="" style="endArrow=classic;html=1;rounded=0;exitX=0;exitY=0.5;exitDx=0;exitDy=0;entryX=1;entryY=0.5;entryDx=0;entryDy=0;strokeWidth=2;" parent="1" source="wnaFUYEEYBbfcS-OowJY-18" target="wnaFUYEEYBbfcS-OowJY-24" edge="1">
                    <mxGeometry width="50" height="50" relative="1" as="geometry">
                        <mxPoint x="730" y="730" as="sourcePoint"/>
                        <mxPoint x="730" y="760" as="targetPoint"/>
                    </mxGeometry>
                </mxCell>
                <mxCell id="15" value="" style="endArrow=classic;html=1;rounded=0;exitX=0;exitY=0.5;exitDx=0;exitDy=0;entryX=1;entryY=0.5;entryDx=0;entryDy=0;strokeWidth=2;" parent="1" source="wnaFUYEEYBbfcS-OowJY-15" target="wnaFUYEEYBbfcS-OowJY-12" edge="1">
                    <mxGeometry width="50" height="50" relative="1" as="geometry">
                        <mxPoint x="690" y="710" as="sourcePoint"/>
                        <mxPoint x="670" y="710" as="targetPoint"/>
                    </mxGeometry>
                </mxCell>
                <mxCell id="21" style="edgeStyle=orthogonalEdgeStyle;rounded=0;orthogonalLoop=1;jettySize=auto;html=1;exitX=0;exitY=0.5;exitDx=0;exitDy=0;entryX=0;entryY=0.5;entryDx=0;entryDy=0;" edge="1" parent="1" source="17" target="wnaFUYEEYBbfcS-OowJY-52">
                    <mxGeometry relative="1" as="geometry">
                        <Array as="points">
                            <mxPoint x="700" y="1065"/>
                            <mxPoint x="700" y="1190"/>
                            <mxPoint x="350" y="1190"/>
                            <mxPoint x="350" y="1035"/>
                        </Array>
                        <mxPoint x="610" y="1180" as="sourcePoint"/>
                        <mxPoint x="430" y="1180" as="targetPoint"/>
                    </mxGeometry>
                </mxCell>
                <mxCell id="23" style="edgeStyle=orthogonalEdgeStyle;rounded=0;orthogonalLoop=1;jettySize=auto;html=1;exitX=0;exitY=0.5;exitDx=0;exitDy=0;entryX=0;entryY=0.5;entryDx=0;entryDy=0;" edge="1" parent="1" source="18" target="4">
                    <mxGeometry relative="1" as="geometry">
                        <Array as="points">
                            <mxPoint x="680" y="1035"/>
                            <mxPoint x="680" y="1180"/>
                            <mxPoint x="510" y="1180"/>
                            <mxPoint x="510" y="1005"/>
                        </Array>
                        <mxPoint x="825" y="1310" as="sourcePoint"/>
                        <mxPoint x="515" y="1280" as="targetPoint"/>
                    </mxGeometry>
                </mxCell>
                <mxCell id="30" value="HomeGym" style="rhombus;whiteSpace=wrap;html=1;" vertex="1" parent="1">
                    <mxGeometry x="385" y="820" width="80" height="60" as="geometry"/>
                </mxCell>
                <mxCell id="32" value="" style="endArrow=none;html=1;rounded=0;entryX=0.5;entryY=1;entryDx=0;entryDy=0;exitX=0;exitY=0.5;exitDx=0;exitDy=0;" edge="1" parent="1" source="30" target="wnaFUYEEYBbfcS-OowJY-8">
                    <mxGeometry width="50" height="50" relative="1" as="geometry">
                        <mxPoint x="730" y="840" as="sourcePoint"/>
                        <mxPoint x="730" y="820" as="targetPoint"/>
                    </mxGeometry>
                </mxCell>
                <mxCell id="33" value="" style="endArrow=classic;html=1;rounded=0;exitX=0;exitY=0.5;exitDx=0;exitDy=0;entryX=1;entryY=0.5;entryDx=0;entryDy=0;strokeWidth=2;" edge="1" parent="1" source="wnaFUYEEYBbfcS-OowJY-19" target="30">
                    <mxGeometry width="50" height="50" relative="1" as="geometry">
                        <mxPoint x="730" y="730" as="sourcePoint"/>
                        <mxPoint x="730" y="760" as="targetPoint"/>
                    </mxGeometry>
                </mxCell>
                <mxCell id="36" style="edgeStyle=orthogonalEdgeStyle;rounded=0;orthogonalLoop=1;jettySize=auto;html=1;exitX=0;exitY=0.5;exitDx=0;exitDy=0;entryX=0;entryY=0.5;entryDx=0;entryDy=0;" edge="1" parent="1" source="34" target="wnaFUYEEYBbfcS-OowJY-2">
                    <mxGeometry relative="1" as="geometry">
                        <Array as="points">
                            <mxPoint x="520" y="1035"/>
                            <mxPoint x="520" y="1220"/>
                            <mxPoint x="160" y="1220"/>
                            <mxPoint x="160" y="1005"/>
                        </Array>
                        <mxPoint x="730" y="1045" as="sourcePoint"/>
                        <mxPoint x="535" y="1015" as="targetPoint"/>
                    </mxGeometry>
                </mxCell>
            </root>
        </mxGraphModel>
    </diagram>
</mxfile>